<svg xmlns="http://www.w3.org/2000/svg" viewBox="0 0 366.88 281.54"><defs><style>.cls-1{fill:#010101;}.cls-2{fill:#ea1d25;}.cls-3{fill:#f69e1e;}.cls-4{fill:#f26122;}</style></defs><g id="Layer_2" data-name="Layer 2"><g id="Layer_1-2" data-name="Layer 1"><g id="layer1"><g id="g13"><g id="g15"><path class="cls-1" d="M66.76,280.91V262.23c0-7.16-4.41-11.84-12-11.84a12.47,12.47,0,0,0-10.71,5.3c-2.21-3.43-5.35-5.3-10.08-5.3a10.23,10.23,0,0,0-8.82,4.36V251H18.58v29.89h6.61v-16.5c0-5.3,2.84-7.79,7.25-7.79s6.61,2.81,6.61,7.79v16.5h6.61v-16.5c0-5.3,3.15-7.79,7.25-7.79,4.41,0,6.61,2.81,6.61,7.79v16.5Z"/><path class="cls-1" d="M164.7,251H154v-9h-6.62v9h-6v5.91h6v13.71c0,6.85,2.84,10.9,10.39,10.9a17.81,17.81,0,0,0,8.19-2.18l-1.89-5.61a10.41,10.41,0,0,1-5.67,1.56c-3.14,0-4.4-1.87-4.4-5v-13.4h10.7V251Z"/><path class="cls-1" d="M220.76,250.39a8.89,8.89,0,0,0-7.87,4.36V251h-6.62v29.89h6.62V264.1c0-5,2.2-7.79,6.29-7.79a18.75,18.75,0,0,1,4.1.62l1.89-6.22a20.48,20.48,0,0,0-4.41-.32Z"/><path class="cls-1" d="M136.05,253.51c-3.15-2.18-7.56-3.12-12.29-3.12-7.55,0-12.59,3.74-12.59,9.66,0,5,3.78,7.78,10.39,8.72l3.15.31c3.46.62,5.35,1.56,5.35,3.11,0,2.18-2.52,3.74-6.93,3.74a17.53,17.53,0,0,1-10.07-3.11l-3.15,5a22.43,22.43,0,0,0,12.91,3.74c8.82,0,13.86-4.05,13.86-9.66,0-5.29-4.1-8.09-10.4-9l-3.15-.31c-2.83-.31-5-.93-5-2.8,0-2.18,2.21-3.43,5.67-3.43a23,23,0,0,1,9.45,2.49l2.84-5.29Z"/><path class="cls-1" d="M311.77,250.39a8.89,8.89,0,0,0-7.87,4.36V251h-6.62v29.89h6.62V264.1c0-5,2.2-7.79,6.3-7.79a18.67,18.67,0,0,1,4.09.62l1.89-6.22a20.48,20.48,0,0,0-4.41-.32Z"/><path class="cls-1" d="M227.37,266c0,9,6.3,15.57,16.06,15.57,4.41,0,7.56-.94,10.71-3.43L251,272.82a12.81,12.81,0,0,1-7.87,2.8c-5.36,0-9.13-3.74-9.13-9.65a9.23,9.23,0,0,1,9.13-9.66,12.87,12.87,0,0,1,7.87,2.8l3.15-5.29c-3.15-2.49-6.3-3.43-10.71-3.43-9.76,0-16.06,6.54-16.06,15.58Z"/><path class="cls-1" d="M281.85,251v3.73a11.42,11.42,0,0,0-9.44-4.36c-8.51,0-15.12,6.54-15.12,15.58s6.61,15.57,15.12,15.57c4.4,0,7.55-1.56,9.44-4.36v3.73h6.62V251Zm-8.5,24.6a9.21,9.21,0,0,1-9.13-9.65c0-5.3,3.46-9.66,9.13-9.66,5.35,0,9.13,4.05,9.13,9.66C282.48,271.26,278.7,275.62,273.35,275.62Z"/><path class="cls-1" d="M199,266.28c.31-9.66-5.35-15.89-13.86-15.89-8.82,0-15.11,6.23-15.11,15.58s6.29,15.57,15.43,15.57a19.4,19.4,0,0,0,12.28-4.05l-3.15-4.67a15.15,15.15,0,0,1-8.82,3.11c-4.09,0-8.19-1.87-9.13-7.16H199ZM177,263.16c.63-4.05,3.47-7.16,8.19-7.16,4.1,0,6.93,2.49,7.56,7.16Z"/><path class="cls-1" d="M342.63,239.18v15.57a11.43,11.43,0,0,0-9.45-4.36c-8.5,0-15.11,6.54-15.11,15.58s6.61,15.57,15.11,15.57c4.41,0,7.56-1.56,9.45-4.36v3.73h6.62V239.18Zm-8.5,36.44A9.21,9.21,0,0,1,325,266c0-5.3,3.46-9.66,9.13-9.66,5.35,0,9.13,4.05,9.13,9.66C343.26,271.26,339.48,275.62,334.13,275.62Z"/><path class="cls-1" d="M97.31,251v3.73a11.43,11.43,0,0,0-9.45-4.36c-8.5,0-15.11,6.54-15.11,15.58s6.61,15.57,15.11,15.57c4.41,0,7.56-1.56,9.45-4.36v3.73h6.61V251Zm-8.82,24.6A9.21,9.21,0,0,1,79.36,266c0-5.3,3.46-9.66,9.13-9.66,5.36,0,9.14,4.05,9.14,9.66C97.63,271.26,93.85,275.62,88.49,275.62Z"/></g><path class="cls-2" d="M140.14,112.12A112,112,0,0,1,183.28,24,113.47,113.47,0,0,0,113.37,0C50.7,0,0,50.14,0,112.12S50.7,224.23,113.37,224.23a113.47,113.47,0,0,0,69.91-24A111.49,111.49,0,0,1,140.14,112.12Z"/><path id="path22" class="cls-3" d="M366.88,112.12c0,62-50.7,112.11-113.37,112.11a113.47,113.47,0,0,1-69.91-24A111.6,111.6,0,0,0,183.6,24,113.47,113.47,0,0,1,253.51,0C316.18,0,366.88,50.45,366.88,112.12Z"/></g></g><path class="cls-4" d="M183.6,200.25h0A111.6,111.6,0,0,0,183.6,24h-.32a111.6,111.6,0,0,0,0,176.27h.32Z"/></g></g></svg>