<svg xmlns="http://www.w3.org/2000/svg" viewBox="0 0 454.94 139.88"><defs><style>.cls-1{fill:#02508b;}</style></defs><g id="Layer_2" data-name="Layer 2"><g id="Layer_1-2" data-name="Layer 1"><path class="cls-1" d="M160.27,137.87l23-135.52h36.84l-23,135.52H160.27M330.68,5.69a94.79,94.79,0,0,0-33-5.69c-36.4,0-62,18.38-62.25,44.72-.21,19.47,18.3,30.34,32.27,36.82,14.34,6.64,19.16,10.88,19.09,16.81-.09,9.08-11.45,13.23-22,13.23-14.74,0-22.57-2-34.67-7.11l-4.74-2.15-5.17,30.33c8.6,3.78,24.51,7.06,41,7.23,38.72,0,63.85-18.17,64.14-46.3.14-15.41-9.68-27.15-30.93-36.82-12.87-6.27-20.76-10.45-20.67-16.8,0-5.63,6.67-11.65,21.09-11.65a67.7,67.7,0,0,1,27.57,5.19l3.3,1.56,5-29.37M454.94,137.92H420.77s-3.38-15.57-4.49-20.31l-47.17-.06c-1.43,3.67-7.75,20.37-7.75,20.37H322.68l54.7-124.2c3.87-8.82,10.47-11.24,19.29-11.24h28.46ZM410.29,89.83,401.76,50.7,399.27,39c-1.86,5.08-5.1,13.29-4.88,12.93,0,0-11.63,30.07-14.68,37.88ZM129.38,2.45,93.32,94.87,89.48,76.09,76.56,13.81c-2.23-8.58-8.7-11.14-16.7-11.44H.47L0,5.19A154.54,154.54,0,0,1,38.69,20.05L71.44,137.76l39,0,58-135.26Z"/></g></g></svg>